<svg id="visual" viewBox="0 0 960 540" width="960" height="540" xmlns="http://www.w3.org/2000/svg" xmlns:xlink="http://www.w3.org/1999/xlink" version="1.1"><g stroke-width="1" stroke-linejoin="bevel"><path d="M444.7 247L548.3 288L532.3 218Z" fill="#27374d" stroke="#27374d"></path><path d="M548.3 288L604 250L532.3 218Z" fill="#496277" stroke="#496277"></path><path d="M444.7 247L533.3 377L548.3 288Z" fill="#455c72" stroke="#455c72"></path><path d="M548.3 288L614 336L604 250Z" fill="#4d677d" stroke="#4d677d"></path><path d="M434.7 84L438.7 146L514.3 56Z" fill="#3c5167" stroke="#3c5167"></path><path d="M532.3 218L438.7 146L444.7 247Z" fill="#2f4157" stroke="#2f4157"></path><path d="M533.3 377L614 336L548.3 288Z" fill="#4d677d" stroke="#4d677d"></path><path d="M301 273L426.7 387L444.7 247Z" fill="#384c62" stroke="#384c62"></path><path d="M444.7 247L426.7 387L533.3 377Z" fill="#2b3c52" stroke="#2b3c52"></path><path d="M729.7 297L652 203L604 250Z" fill="#496277" stroke="#496277"></path><path d="M604 250L652 203L532.3 218Z" fill="#2b3c52" stroke="#2b3c52"></path><path d="M514.3 56L438.7 146L532.3 218Z" fill="#2f4157" stroke="#2f4157"></path><path d="M340 142L301 273L444.7 247Z" fill="#2b3c52" stroke="#2b3c52"></path><path d="M340 142L444.7 247L438.7 146Z" fill="#4d677d" stroke="#4d677d"></path><path d="M357 101L340 142L438.7 146Z" fill="#2b3c52" stroke="#2b3c52"></path><path d="M457.7 477L551.3 455L533.3 377Z" fill="#2f4157" stroke="#2f4157"></path><path d="M533.3 377L652 414L614 336Z" fill="#384c62" stroke="#384c62"></path><path d="M301 273L341 394L426.7 387Z" fill="#2f4157" stroke="#2f4157"></path><path d="M426.7 387L457.7 477L533.3 377Z" fill="#33465d" stroke="#33465d"></path><path d="M677 100L514.3 56L532.3 218Z" fill="#27374d" stroke="#27374d"></path><path d="M432.7 0L357 101L434.7 84Z" fill="#3c5167" stroke="#3c5167"></path><path d="M434.7 84L357 101L438.7 146Z" fill="#40566c" stroke="#40566c"></path><path d="M551.3 455L652 414L533.3 377Z" fill="#2f4157" stroke="#2f4157"></path><path d="M614 336L729.7 297L604 250Z" fill="#526d82" stroke="#526d82"></path><path d="M326 434L457.7 477L426.7 387Z" fill="#2b3c52" stroke="#2b3c52"></path><path d="M717.7 396L729.7 297L614 336Z" fill="#384c62" stroke="#384c62"></path><path d="M775.7 161L677 100L652 203Z" fill="#455c72" stroke="#455c72"></path><path d="M652 203L677 100L532.3 218Z" fill="#33465d" stroke="#33465d"></path><path d="M241.3 354L326 434L341 394Z" fill="#2f4157" stroke="#2f4157"></path><path d="M341 394L326 434L426.7 387Z" fill="#40566c" stroke="#40566c"></path><path d="M725.7 427L717.7 396L652 414Z" fill="#33465d" stroke="#33465d"></path><path d="M652 414L717.7 396L614 336Z" fill="#33465d" stroke="#33465d"></path><path d="M514.3 56L432.7 0L434.7 84Z" fill="#33465d" stroke="#33465d"></path><path d="M567.3 0L432.7 0L514.3 56Z" fill="#33465d" stroke="#33465d"></path><path d="M677 100L567.3 0L514.3 56Z" fill="#27374d" stroke="#27374d"></path><path d="M199.3 232L241.3 354L301 273Z" fill="#27374d" stroke="#27374d"></path><path d="M301 273L241.3 354L341 394Z" fill="#455c72" stroke="#455c72"></path><path d="M199.3 232L301 273L340 142Z" fill="#526d82" stroke="#526d82"></path><path d="M457.7 477L537.3 540L551.3 455Z" fill="#2b3c52" stroke="#2b3c52"></path><path d="M551.3 455L627 540L652 414Z" fill="#3c5167" stroke="#3c5167"></path><path d="M395.7 540L537.3 540L457.7 477Z" fill="#455c72" stroke="#455c72"></path><path d="M627 540L725.7 427L652 414Z" fill="#455c72" stroke="#455c72"></path><path d="M880.3 342L879.3 274L729.7 297Z" fill="#496277" stroke="#496277"></path><path d="M729.7 297L775.7 161L652 203Z" fill="#2f4157" stroke="#2f4157"></path><path d="M677 100L679 0L567.3 0Z" fill="#2b3c52" stroke="#2b3c52"></path><path d="M826.3 199L775.7 161L729.7 297Z" fill="#33465d" stroke="#33465d"></path><path d="M350 540L395.7 540L326 434Z" fill="#33465d" stroke="#33465d"></path><path d="M326 434L395.7 540L457.7 477Z" fill="#455c72" stroke="#455c72"></path><path d="M191.3 166L340 142L205.3 54Z" fill="#496277" stroke="#496277"></path><path d="M191.3 166L199.3 232L340 142Z" fill="#384c62" stroke="#384c62"></path><path d="M537.3 540L627 540L551.3 455Z" fill="#496277" stroke="#496277"></path><path d="M204.3 540L350 540L326 434Z" fill="#384c62" stroke="#384c62"></path><path d="M763.7 60L679 0L677 100Z" fill="#40566c" stroke="#40566c"></path><path d="M205.3 54L340 142L357 101Z" fill="#2b3c52" stroke="#2b3c52"></path><path d="M775.7 161L763.7 60L677 100Z" fill="#455c72" stroke="#455c72"></path><path d="M879.3 274L826.3 199L729.7 297Z" fill="#2b3c52" stroke="#2b3c52"></path><path d="M775.7 161L874.3 92L763.7 60Z" fill="#3c5167" stroke="#3c5167"></path><path d="M432.7 0L286 0L357 101Z" fill="#33465d" stroke="#33465d"></path><path d="M286 0L205.3 54L357 101Z" fill="#384c62" stroke="#384c62"></path><path d="M286 0L250.3 0L205.3 54Z" fill="#384c62" stroke="#384c62"></path><path d="M850.3 0L760.7 0L763.7 60Z" fill="#496277" stroke="#496277"></path><path d="M763.7 60L760.7 0L679 0Z" fill="#27374d" stroke="#27374d"></path><path d="M127.7 199L199.3 232L191.3 166Z" fill="#384c62" stroke="#384c62"></path><path d="M127.7 199L124.7 252L199.3 232Z" fill="#27374d" stroke="#27374d"></path><path d="M199.3 232L125.7 338L241.3 354Z" fill="#3c5167" stroke="#3c5167"></path><path d="M241.3 354L173.3 469L326 434Z" fill="#2b3c52" stroke="#2b3c52"></path><path d="M112.7 123L127.7 199L191.3 166Z" fill="#496277" stroke="#496277"></path><path d="M627 540L755.7 540L725.7 427Z" fill="#3c5167" stroke="#3c5167"></path><path d="M880.3 342L729.7 297L717.7 396Z" fill="#2f4157" stroke="#2f4157"></path><path d="M124.7 252L125.7 338L199.3 232Z" fill="#384c62" stroke="#384c62"></path><path d="M880.3 342L717.7 396L725.7 427Z" fill="#455c72" stroke="#455c72"></path><path d="M826.3 199L874.3 92L775.7 161Z" fill="#3c5167" stroke="#3c5167"></path><path d="M133.7 451L173.3 469L241.3 354Z" fill="#4d677d" stroke="#4d677d"></path><path d="M888.3 451L880.3 342L725.7 427Z" fill="#526d82" stroke="#526d82"></path><path d="M173.3 469L204.3 540L326 434Z" fill="#33465d" stroke="#33465d"></path><path d="M0 211L0 259L124.7 252Z" fill="#40566c" stroke="#40566c"></path><path d="M0 375L133.7 451L125.7 338Z" fill="#33465d" stroke="#33465d"></path><path d="M205.3 54L112.7 123L191.3 166Z" fill="#2f4157" stroke="#2f4157"></path><path d="M75.7 0L112.7 123L205.3 54Z" fill="#33465d" stroke="#33465d"></path><path d="M125.7 338L133.7 451L241.3 354Z" fill="#27374d" stroke="#27374d"></path><path d="M173.3 469L93.7 540L204.3 540Z" fill="#27374d" stroke="#27374d"></path><path d="M960 196L874.3 92L826.3 199Z" fill="#40566c" stroke="#40566c"></path><path d="M755.7 540L888.3 451L725.7 427Z" fill="#2f4157" stroke="#2f4157"></path><path d="M960 375L960 236L879.3 274Z" fill="#40566c" stroke="#40566c"></path><path d="M879.3 274L960 196L826.3 199Z" fill="#3c5167" stroke="#3c5167"></path><path d="M874.3 92L850.3 0L763.7 60Z" fill="#40566c" stroke="#40566c"></path><path d="M960 375L879.3 274L880.3 342Z" fill="#496277" stroke="#496277"></path><path d="M874.3 92L960 68L850.3 0Z" fill="#526d82" stroke="#526d82"></path><path d="M960 236L960 196L879.3 274Z" fill="#2f4157" stroke="#2f4157"></path><path d="M888.3 451L960 375L880.3 342Z" fill="#455c72" stroke="#455c72"></path><path d="M755.7 540L891.3 540L888.3 451Z" fill="#455c72" stroke="#455c72"></path><path d="M888.3 451L960 465L960 375Z" fill="#40566c" stroke="#40566c"></path><path d="M0 259L125.7 338L124.7 252Z" fill="#40566c" stroke="#40566c"></path><path d="M0 458L93.7 540L133.7 451Z" fill="#33465d" stroke="#33465d"></path><path d="M133.7 451L93.7 540L173.3 469Z" fill="#2b3c52" stroke="#2b3c52"></path><path d="M250.3 0L75.7 0L205.3 54Z" fill="#40566c" stroke="#40566c"></path><path d="M0 211L124.7 252L127.7 199Z" fill="#33465d" stroke="#33465d"></path><path d="M0 211L127.7 199L112.7 123Z" fill="#2b3c52" stroke="#2b3c52"></path><path d="M960 196L960 68L874.3 92Z" fill="#455c72" stroke="#455c72"></path><path d="M0 125L0 211L112.7 123Z" fill="#33465d" stroke="#33465d"></path><path d="M891.3 540L960 465L888.3 451Z" fill="#27374d" stroke="#27374d"></path><path d="M0 259L0 375L125.7 338Z" fill="#33465d" stroke="#33465d"></path><path d="M75.7 0L0 125L112.7 123Z" fill="#455c72" stroke="#455c72"></path><path d="M960 68L960 0L850.3 0Z" fill="#27374d" stroke="#27374d"></path><path d="M0 375L0 458L133.7 451Z" fill="#33465d" stroke="#33465d"></path><path d="M891.3 540L960 540L960 465Z" fill="#455c72" stroke="#455c72"></path><path d="M75.7 0L0 0L0 125Z" fill="#526d82" stroke="#526d82"></path><path d="M0 458L0 540L93.7 540Z" fill="#27374d" stroke="#27374d"></path></g></svg>